<?xml version="1.0" encoding="UTF-8"?>
<svg id="Layer_2" data-name="Layer 2" xmlns="http://www.w3.org/2000/svg" viewBox="0 0 4119.99 786.28">
  <defs>
    <style>
      .cls-1 {
        fill: #fff;
      }
    </style>
  </defs>
  <g id="Layer_1-2" data-name="Layer 1">
    <g>
      <g>
        <polygon class="cls-1" points="1764.15 534.53 1693.85 211.86 1575.78 211.86 1506.38 534.53 1439.69 211.86 1322.51 211.86 1444.19 662.52 1560.47 662.52 1637.07 339.85 1704.67 662.52 1821.83 662.52 1946.22 211.86 1829.05 211.86 1764.15 534.53"/>
        <path class="cls-1" d="M2352.4,266.29c-12.37-17.25-27.57-31.49-45.68-42.63-27.95-17.16-62.59-25.76-103.93-25.76-62.3,0-110.04,20.82-143.23,62.45-33.19,41.63-50.08,98.25-50.66,169.87-1.16,71.61,14.56,128.25,47.17,169.87,32.61,41.63,80.04,62.45,142.36,62.45,40.74,0,75.24-8.74,103.48-26.2,18.38-11.37,33.87-25.75,46.58-43.03l12.38,55.26h88.2l4.36-436.68h-87.33l-13.71,54.42ZM2308.91,540.68c-18.34,21.83-44.69,32.75-79.03,32.75-36.69,0-64.07-12.66-82.11-37.99-18.05-25.32-26.5-60.4-25.31-105.24.57-44.83,9.89-79.92,27.95-105.24,18.04-25.33,45.42-37.99,82.09-37.99,34.34,0,60.7,10.63,79.04,31.88,17.33,20.08,26.1,47.64,26.54,82.51l-.62,51.55h-.15c-.58,36.68-10.05,65.94-28.39,87.77Z"/>
        <path class="cls-1" d="M2908.44,266.28c-12.37-17.25-27.57-31.49-45.68-42.63-27.95-17.16-62.59-25.76-103.93-25.76-62.3,0-110.04,20.82-143.23,62.45-33.19,41.63-50.07,98.25-50.66,169.87-1.16,71.61,14.56,128.25,47.17,169.87,32.61,41.63,80.04,62.45,142.36,62.45,40.74,0,75.24-8.74,103.48-26.2,18.38-11.37,33.87-25.75,46.58-43.03l12.38,55.26h88.2l4.36-436.68h-87.33l-13.71,54.42ZM2864.94,540.68c-18.34,21.83-44.69,32.75-79.03,32.75-36.69,0-64.07-12.66-82.11-37.99-18.05-25.32-26.5-60.4-25.32-105.24.57-44.83,9.89-79.92,27.95-105.24,18.04-25.33,45.42-37.99,82.09-37.99,34.34,0,60.7,10.63,79.04,31.88,17.33,20.08,26.1,47.65,26.54,82.52l-.62,51.54h-.15c-.58,36.68-10.05,65.94-28.39,87.77Z"/>
        <path class="cls-1" d="M3483.35,221.91c-27.95-16.01-62.88-24.02-104.81-24.02s-75.69,8.01-103.06,24.02c-16.5,9.66-30.56,21.31-42.3,34.87l-12.71-44.92h-87.33l-4.38,436.68h113.55l3.55-279.94c1.77-15.1,6.17-28.41,13.48-39.71,9.02-13.97,20.81-24.46,35.37-31.44,14.54-6.99,32.59-10.48,54.14-10.48,34.94,0,61.14,8.16,78.61,24.45,17.47,16.31,25.62,39.02,24.45,68.12l-2.61,268.99h113.54l2.61-268.99c.58-35.51-5.97-66.66-19.65-93.45-13.69-26.77-34.49-48.17-62.44-64.19Z"/>
        <polygon class="cls-1" points="3992.48 211.86 3892.92 355.97 3796.85 211.86 3668.46 211.86 3823.04 430.2 3664.09 648.54 3792.48 648.54 3892.04 504.44 3988.12 648.54 4115.63 648.54 3963.66 430.2 4119.99 211.86 3992.48 211.86"/>
      </g>
      <path class="cls-1" d="M1114.58,0c-1.81,1.24-3.62,2.54-5.43,3.81-1.65,1.17-3.27,2.35-4.82,3.52-4.06,2.98-7.93,5.93-11.62,8.86-23.36,18.57-39.58,35.99-50.4,52.24-14.38,21.55-19.36,40.91-19.17,58.02-9.68-16.82-20.85-30.82-32.21-42.47-13.68-14.03-27.74-24.57-39.83-32.31-6.06-3.9-11.62-7.08-16.47-9.65-2.79-1.49-5.36-2.76-7.59-3.87,0,0-.1.54-.16,1.59,0,.32-.03.73-.1,1.17-.7,10.22-2.89,47.54,1.49,92.29,8.22,84.17,39.48,194.62,146.47,200.58.1,2.06.1,5.52-.1,10.16-.16,4.63-.54,10.41-1.21,17.07-.86,7.74-2.19,16.73-4.28,26.6-6.35,30.28-21.26,75.25-56.27,117.97-31.74,38.72-69.95,66.21-113.65,81.76-20.63,7.33-42.18,11.97-65.32,14-9.14.83-18.54,1.24-28.25,1.24-3.78,0-7.81-.19-12.09-.57-21.45-.89-45.04-4.86-64.81-15.81-3.71-2.06-7.3-4.32-10.76-6.73-2.7-1.87-5.33-3.84-7.87-5.94-.06,0-.1-.06-.16-.13-25.14-20.5-42.94-50.3-52.08-85.12-4.06-15.27-6.47-31.52-7.14-48.37v-134.09c0-6.41-.7-12.66-1.9-18.73-2.19-10.6-6.16-20.53-11.58-29.48t0-.03c-3.14-5.08-6.7-9.87-10.7-14.28-.98-1.08-2-2.19-3.08-3.24-4.22-4.25-8.82-8.06-13.77-11.36-2.41-1.68-4.98-3.24-7.59-4.67h-.06c-.98-.54-1.94-1.05-2.98-1.56-2.03-.98-4.06-1.94-6.16-2.79-1.05-.44-2.09-.86-3.17-1.24-10-3.65-20.72-5.65-31.99-5.65h-3.49c-51.32,0-92.96,41.7-92.96,93.06v164.43c0,69.79-60.97,126.57-135.9,126.57s-135.93-56.78-135.93-126.57v-125.68c0-69.06-56.24-125.24-125.27-125.24H0v250.92c0,174.24,145.93,315.98,325.41,315.98,90.01,0,171.64-35.71,230.61-93.28h.03c2.19,2.13,4.41,4.22,6.63,6.28,2.25,2.09,4.54,4.13,6.82,6.13,2.19,1.94,4.41,3.81,6.66,5.68.22.19.44.35.67.54,1.75,1.43,3.49,2.83,5.27,4.22.83.67,1.68,1.33,2.57,1.97,2.22,1.78,4.51,3.49,6.82,5.17,2.32,1.68,4.63,3.33,6.98,4.95,2.32,1.59,4.67,3.17,7.01,4.7.51.35,1.05.73,1.62,1.05,2.25,1.49,4.54,2.92,6.86,4.32,3.14,1.9,6.28,3.78,9.49,5.59,3.65,2.06,7.33,4.06,11.04,5.94,2.82,1.49,5.71,2.92,8.57,4.28,1.11.54,2.22,1.08,3.36,1.59,1.4.67,2.82,1.33,4.28,1.94,2.48,1.14,5.01,2.25,7.55,3.3,1.17.48,2.25.95,3.4,1.4,6.92,2.82,13.96,5.4,21.11,7.74,1.94.63,3.87,1.27,5.84,1.84,5.49,1.71,11.04,3.27,16.69,4.67,2.16.54,4.35,1.08,6.51,1.56.89.22,1.81.41,2.73.6,2.09.48,4.22.92,6.32,1.36h.1c5.21,1.05,10.44,1.97,15.74,2.76.19.03.35.06.54.06,5.17.79,10.41,1.43,15.68,1.97.29.03.6.06.95.06,2.03.22,4.13.41,6.22.57.95.09,1.81.16,2.73.19,2.03.16,4.06.29,6.13.38.83.06,1.65.1,2.51.13,1.87.1,3.68.16,5.52.19,1.11.06,2.22.06,3.3.1,2.16.03,4.25.06,6.38.06h.03c2.57,0,5.11-.03,7.68-.1.41,0,.86,0,1.27-.03,2.35-.06,4.7-.13,7.05-.25.51-.03.98-.03,1.49-.1,2.13-.1,4.25-.22,6.38-.38,4.89-.32,9.71-.79,14.54-1.36,1.3-.13,2.6-.29,3.87-.44,159.52-20.18,285.61-153.37,285.61-313.68V0Z"/>
    </g>
  </g>
</svg>