<?xml version="1.0" encoding="UTF-8"?>
<svg id="Layer_2" data-name="Layer 2" xmlns="http://www.w3.org/2000/svg" viewBox="0 0 1031.68 944.4">
  <defs>
    <style>
      .cls-1 {
        fill: #0052fc;
      }
    </style>
  </defs>
  <g id="Layer_1-2" data-name="Layer 1">
    <g>
      <g>
        <polygon class="cls-1" points="140.87 911.81 124.78 837.95 97.75 837.95 81.86 911.81 66.6 837.95 39.77 837.95 67.63 941.1 94.24 941.1 111.78 867.24 127.25 941.1 154.07 941.1 182.54 837.95 155.72 837.95 140.87 911.81"/>
        <path class="cls-1" d="M353.63,850.8c-2.92-4.07-6.51-7.44-10.79-10.07-6.6-4.05-14.78-6.09-24.55-6.09-14.72,0-25.99,4.92-33.83,14.75-7.84,9.84-11.83,23.21-11.97,40.13-.28,16.92,3.44,30.3,11.14,40.13,7.7,9.84,18.91,14.75,33.63,14.75,9.62,0,17.77-2.06,24.45-6.19,4.34-2.69,8-6.08,11-10.17l2.92,13.05h20.84l1.03-103.16h-20.63l-3.24,12.86ZM343.36,915.62c-4.33,5.16-10.56,7.74-18.67,7.74-8.67,0-15.13-2.99-19.4-8.97-4.26-5.98-6.26-14.27-5.98-24.86.13-10.59,2.34-18.88,6.6-24.86,4.26-5.98,10.73-8.97,19.39-8.97,8.11,0,14.34,2.51,18.67,7.53,4.09,4.74,6.16,11.25,6.27,19.49l-.15,12.18h-.04c-.14,8.67-2.37,15.58-6.71,20.73Z"/>
        <path class="cls-1" d="M559.74,850.8c-2.92-4.07-6.51-7.44-10.79-10.07-6.6-4.05-14.78-6.09-24.55-6.09-14.72,0-25.99,4.92-33.83,14.75-7.84,9.84-11.83,23.21-11.97,40.13-.28,16.92,3.44,30.3,11.14,40.13,7.7,9.84,18.91,14.75,33.63,14.75,9.62,0,17.77-2.06,24.45-6.19,4.34-2.69,8-6.08,11-10.17l2.92,13.05h20.84l1.03-103.16h-20.63l-3.24,12.86ZM549.47,915.62c-4.33,5.16-10.56,7.74-18.67,7.74-8.67,0-15.13-2.99-19.4-8.97-4.26-5.98-6.26-14.27-5.98-24.86.13-10.59,2.34-18.88,6.6-24.86,4.26-5.98,10.73-8.97,19.39-8.97,8.11,0,14.34,2.51,18.67,7.53,4.09,4.74,6.16,11.26,6.27,19.49l-.15,12.18h-.04c-.14,8.67-2.37,15.58-6.71,20.73Z"/>
        <path class="cls-1" d="M769.91,840.32c-6.6-3.78-14.85-5.67-24.76-5.67s-17.88,1.89-24.34,5.67c-3.9,2.28-7.22,5.03-9.99,8.24l-3-10.61h-20.63l-1.03,103.16h26.82l.84-66.13c.42-3.57,1.46-6.71,3.18-9.38,2.13-3.3,4.92-5.78,8.36-7.43,3.43-1.65,7.7-2.47,12.79-2.47,8.25,0,14.44,1.93,18.57,5.78,4.13,3.85,6.05,9.22,5.78,16.09l-.62,63.54h26.82l.62-63.54c.14-8.39-1.41-15.75-4.64-22.08-3.23-6.32-8.15-11.38-14.75-15.16Z"/>
        <polygon class="cls-1" points="961.78 837.95 938.26 871.99 915.57 837.95 885.24 837.95 921.75 889.53 884.21 941.1 914.53 941.1 938.05 907.06 960.75 941.1 990.87 941.1 954.97 889.53 991.9 837.95 961.78 837.95"/>
      </g>
      <path class="cls-1" d="M1031.68,0c-1.67,1.15-3.35,2.35-5.02,3.53-1.53,1.09-3.03,2.17-4.47,3.26-3.76,2.76-7.34,5.49-10.75,8.2-21.62,17.19-36.63,33.31-46.65,48.36-13.31,19.95-17.92,37.87-17.74,53.7-8.96-15.57-19.3-28.53-29.82-39.31-12.66-12.98-25.68-22.74-36.87-29.91-5.61-3.61-10.75-6.55-15.25-8.93-2.59-1.38-4.96-2.56-7.02-3.58,0,0-.09.5-.15,1.47,0,.29-.03.68-.09,1.09-.65,9.46-2.67,44.01,1.38,85.43,7.61,77.91,36.55,180.14,135.58,185.67.09,1.91.09,5.11-.09,9.4-.15,4.29-.5,9.64-1.12,15.8-.79,7.17-2.03,15.48-3.97,24.62-5.88,28.03-19.68,69.65-52.09,109.2-29.38,35.84-64.75,61.28-105.2,75.68-19.1,6.79-39.04,11.08-60.46,12.96-8.46.76-17.16,1.15-26.15,1.15-3.5,0-7.23-.18-11.19-.53-19.86-.82-41.69-4.49-59.99-14.63-3.44-1.91-6.76-3.99-9.96-6.23-2.5-1.73-4.94-3.55-7.29-5.49-.06,0-.09-.06-.15-.12-23.27-18.98-39.75-46.56-48.21-78.79-3.76-14.13-5.99-29.17-6.61-44.77v-124.12c0-5.93-.65-11.72-1.76-17.33-2.03-9.81-5.7-19.01-10.72-27.29t0-.03c-2.91-4.7-6.2-9.14-9.9-13.22-.91-1-1.85-2.03-2.85-3-3.91-3.94-8.17-7.46-12.75-10.52-2.23-1.56-4.61-3-7.02-4.32h-.06c-.91-.5-1.79-.97-2.76-1.44-1.88-.91-3.76-1.79-5.7-2.59-.97-.41-1.94-.79-2.94-1.15-9.25-3.38-19.18-5.23-29.61-5.23h-3.23c-47.5,0-86.05,38.6-86.05,86.13v152.2c0,64.6-56.43,117.16-125.79,117.16s-125.82-52.56-125.82-117.16v-116.33c0-63.93-52.06-115.92-115.95-115.92H0v232.26c0,161.28,135.08,292.48,301.21,292.48,83.31,0,158.87-33.05,213.46-86.34h.03c2.03,1.97,4.08,3.91,6.14,5.82,2.09,1.94,4.2,3.82,6.32,5.67,2.03,1.79,4.08,3.53,6.17,5.26.21.18.41.32.62.5,1.62,1.32,3.23,2.61,4.88,3.91.76.62,1.56,1.23,2.38,1.82,2.06,1.65,4.17,3.23,6.32,4.79,2.14,1.56,4.29,3.08,6.46,4.58,2.14,1.47,4.32,2.94,6.49,4.35.47.32.97.68,1.5.97,2.09,1.38,4.2,2.7,6.35,4,2.91,1.76,5.82,3.5,8.78,5.17,3.38,1.91,6.79,3.76,10.22,5.49,2.61,1.38,5.29,2.7,7.93,3.97,1.03.5,2.06,1,3.11,1.47,1.29.62,2.61,1.23,3.97,1.79,2.29,1.06,4.64,2.09,6.99,3.06,1.09.44,2.09.88,3.14,1.29,6.4,2.61,12.93,4.99,19.54,7.17,1.79.59,3.58,1.17,5.41,1.7,5.08,1.59,10.22,3.03,15.45,4.32,2,.5,4.02,1,6.02,1.44.82.21,1.67.38,2.53.56,1.94.44,3.91.85,5.85,1.26h.09c4.82.97,9.67,1.82,14.57,2.56.18.03.32.06.5.06,4.79.73,9.64,1.32,14.51,1.82.26.03.56.06.88.06,1.88.21,3.82.38,5.76.53.88.09,1.67.15,2.53.18,1.88.15,3.76.26,5.67.35.76.06,1.53.09,2.32.12,1.73.09,3.41.15,5.11.18,1.03.06,2.06.06,3.06.09,2,.03,3.94.06,5.9.06h.03c2.38,0,4.73-.03,7.11-.09.38,0,.79,0,1.18-.03,2.17-.06,4.35-.12,6.52-.23.47-.03.91-.03,1.38-.09,1.97-.09,3.94-.21,5.9-.35,4.52-.29,8.99-.73,13.45-1.26,1.2-.12,2.41-.26,3.58-.41,147.65-18.68,264.37-141.96,264.37-290.35V0Z"/>
    </g>
  </g>
</svg>